<svg width="136" height="63" viewBox="0 0 136 63" fill="none" xmlns="http://www.w3.org/2000/svg">
<path d="M63.1569 20.6012H34.9359L33.1492 27.9396H61.3702L57.2311 45.2487H29.0086L24.8695 62.7448H0.693359L15.7443 0H68.1414L63.1569 20.6012Z" fill="#896CFE"/>
<path d="M115.469 0C125.911 0 129.016 0.56414 132.119 2.72797C134.472 4.42039 135.694 7.33692 135.694 11.1004C135.694 17.1205 132.591 23.8948 128.263 27.0927C126.005 28.7851 123.09 29.9149 118.385 30.9489L118.291 31.3245C122.713 31.9829 123.652 32.2658 125.158 33.1127C127.886 34.8052 129.297 37.3446 129.297 41.0154C129.297 48.918 124.499 57.1019 117.914 60.394C114.527 61.9937 109.918 62.7464 102.204 62.7464H61.2832L76.3342 0.00154533H115.469V0Z" fill="#896CFE"/>
<path d="M111.697 30.359C109.431 29.9974 107.456 28.6697 106.252 26.7578L103.159 33.2539C105.221 35.138 107.813 36.4178 110.655 36.8722C112.454 37.1596 114.145 35.9355 114.433 34.1365C114.722 32.3374 113.496 30.6465 111.697 30.359Z" fill="#E2F163"/>
<path d="M87.3165 43.8803C88.5746 43.412 89.8481 42.7366 91.0429 41.8061C90.5112 41.463 90.0305 41.0983 89.6039 40.7103C88.6132 39.8108 87.9084 38.8077 87.437 37.8139C87.2454 37.4105 87.0939 37.0117 86.9702 36.6191C86.6518 36.8649 86.3257 37.0751 85.9872 37.2575C85.2778 37.6392 84.5189 37.9004 83.7369 38.0643C82.9563 38.2281 82.1557 38.2946 81.4015 38.2946C80.3288 38.2946 79.3505 38.1601 78.6689 38.0272C78.3273 37.9607 78.0615 37.8958 77.8914 37.851C77.8064 37.8293 77.7477 37.8108 77.7137 37.8015L77.6859 37.7938H77.6843C75.9564 37.2451 74.1063 38.1941 73.5468 39.9221C72.9857 41.6547 73.9378 43.514 75.6704 44.0751C75.7724 44.1075 76.4015 44.3069 77.4061 44.5032C78.4108 44.6979 79.7894 44.8911 81.3999 44.8927C82.4077 44.8927 83.505 44.817 84.658 44.6068C85.522 44.4491 86.4154 44.2173 87.3165 43.8803Z" fill="#E2F163"/>
<path d="M112.053 51.9185H108.795C108.851 51.7037 108.886 51.4811 108.898 51.2508C108.902 51.1998 108.909 51.0221 108.909 50.7392C108.909 50.0762 108.868 48.8351 108.599 47.2709C108.396 46.0978 108.065 44.7439 107.511 43.3188C107.095 42.2508 106.551 41.1426 105.834 40.0546C105.296 39.24 104.66 38.4363 103.914 37.6805C102.795 36.5461 101.419 35.5182 99.7888 34.7161C99.7733 34.7083 99.7563 34.7006 99.7393 34.6929L105.034 23.5708L105.282 22.982C106.337 20.4611 105.149 17.5631 102.628 16.5075C102.274 16.3591 101.912 16.2571 101.549 16.1953C101.239 16.0793 100.919 16.0129 100.599 15.9928C100.523 15.9773 100.443 15.9619 100.354 15.9449C99.6296 15.8089 98.5183 15.6543 97.1319 15.6543C95.2849 15.6528 92.9325 15.931 90.322 16.8722C87.7115 17.8104 84.8584 19.4163 82.0222 21.9789C80.6698 23.1983 80.5632 25.2849 81.7826 26.6373C83.0021 27.9897 85.0886 28.0963 86.441 26.8768C88.6744 24.8645 90.7471 23.7331 92.5585 23.0778C93.2617 22.8243 93.9263 22.645 94.5477 22.5183L89.9573 32.2045C89.9542 32.2153 89.9511 32.2292 89.9464 32.2493C89.9341 32.3065 89.914 32.4023 89.8939 32.5291C89.8537 32.7841 89.8104 33.1628 89.8104 33.6156C89.8104 34.1257 89.8645 34.7254 90.0299 35.3467C90.1953 35.9696 90.4658 36.611 90.9078 37.24C91.203 37.6589 91.5755 38.0746 92.0562 38.475C92.5832 38.9139 93.2463 39.3358 94.084 39.7145C94.897 39.8753 95.6079 40.0932 96.237 40.3482C96.965 40.645 97.5832 40.9943 98.1242 41.3822C99.0685 42.0607 99.7872 42.8598 100.362 43.7408C100.792 44.4008 101.135 45.1071 101.404 45.815C101.807 46.8768 102.042 47.9463 102.167 48.8335C102.294 49.7191 102.313 50.4193 102.313 50.7408C102.313 50.8211 102.311 50.8768 102.311 50.9077L102.31 50.9324H102.311C102.296 51.274 102.333 51.6048 102.415 51.9201H85.6914C85.0083 51.9201 84.4549 52.4734 84.4549 53.1565C84.4549 53.8397 85.0083 54.393 85.6914 54.393H112.055C112.738 54.393 113.291 53.8397 113.291 53.1565C113.289 52.4718 112.736 51.9185 112.053 51.9185Z" fill="#E2F163"/>
<path d="M79.6933 51.916H76.715C76.0318 51.916 75.4785 52.4693 75.4785 53.1525C75.4785 53.8356 76.0318 54.389 76.715 54.389H79.6933C80.3765 54.389 80.9298 53.8356 80.9298 53.1525C80.9298 52.4693 80.3765 51.916 79.6933 51.916Z" fill="#E2F163"/>
<path d="M105.602 15.8213C107.775 15.8213 109.537 14.0595 109.537 11.8862C109.537 9.71296 107.775 7.95117 105.602 7.95117C103.429 7.95117 101.667 9.71296 101.667 11.8862C101.667 14.0595 103.429 15.8213 105.602 15.8213Z" fill="#E2F163"/>
</svg>
